<?xml version="1.0" standalone="no"?>
<!DOCTYPE svg PUBLIC "-//W3C//DTD SVG 20010904//EN"
 "http://www.w3.org/TR/2001/REC-SVG-20010904/DTD/svg10.dtd">
<svg version="1.0" xmlns="http://www.w3.org/2000/svg"
 width="260.000000pt" height="260.000000pt" viewBox="0 0 260.000000 260.000000"
 preserveAspectRatio="xMidYMid meet">
<metadata>
Created by potrace 1.11, written by Peter Selinger 2001-2013
</metadata>
<g transform="translate(0.000000,260.000000) scale(0.100000,-0.100000)"
fill="#000000" stroke="none">
<path d="M1250 2431 c0 -17 57 -51 84 -51 32 0 34 23 4 44 -24 17 -88 22 -88
7z"/>
<path d="M145 2400 c-5 -17 -3 -67 9 -165 2 -16 7 -59 10 -95 9 -94 16 -160
21 -200 16 -134 16 -199 1 -229 -20 -38 -20 -38 9 -65 13 -12 27 -38 30 -57 3
-19 7 -45 10 -59 3 -14 7 -41 10 -60 8 -45 32 -72 64 -68 33 4 45 47 30 110
-21 89 -18 119 13 124 7 1 69 13 137 28 68 14 129 26 136 26 8 0 16 -13 20
-29 9 -40 49 -81 79 -81 29 0 82 50 124 119 73 118 144 245 157 279 7 20 14
30 15 22 1 -8 3 -22 5 -31 4 -21 13 -108 20 -194 4 -38 8 -81 10 -95 2 -14 7
-50 10 -80 8 -67 19 -88 51 -100 37 -14 55 2 113 101 37 63 56 87 66 83 8 -4
16 -11 16 -18 1 -6 3 -24 5 -41 3 -26 10 -116 13 -166 1 -16 40 -39 66 -39 32
0 40 85 20 241 -2 14 -6 66 -10 115 -4 49 -9 92 -11 96 -3 4 18 6 46 4 27 -2
102 7 166 20 64 13 120 21 125 18 17 -10 9 -40 -22 -90 -17 -27 -34 -51 -38
-54 -18 -14 -111 -130 -111 -138 0 -14 35 -42 53 -42 9 0 44 38 79 85 63 85
80 100 74 68 -6 -29 14 -136 29 -160 18 -27 55 -23 95 10 32 25 124 152 191
262 48 79 65 102 74 94 6 -7 12 -55 20 -154 6 -79 10 -117 21 -205 5 -46 26
-89 44 -91 6 -1 16 -2 23 -3 30 -5 39 17 33 83 -8 86 -15 228 -21 426 -3 88
-8 171 -10 185 -3 14 -7 49 -10 79 -7 60 -29 121 -48 133 -18 11 -76 -1 -136
-29 -80 -38 -162 -126 -210 -226 -23 -46 -41 -90 -41 -98 0 -28 -18 -41 -61
-46 -24 -2 -85 -13 -136 -23 -133 -28 -179 -32 -193 -15 -10 12 -9 21 5 42 32
49 143 150 202 184 32 18 60 33 61 35 10 7 -11 42 -27 47 -30 7 -76 -18 -177
-98 -99 -79 -123 -87 -125 -38 -2 110 -12 138 -53 145 -46 9 -55 -5 -50 -85 2
-39 6 -85 8 -102 3 -16 8 -66 11 -110 l7 -80 -51 -107 c-28 -60 -55 -108 -60
-108 -24 0 -25 7 -35 285 -11 295 -26 393 -65 422 -41 30 -170 -25 -253 -109
-95 -96 -164 -267 -184 -459 -3 -35 -8 -66 -10 -68 -1 -2 -42 -7 -91 -13 -48
-5 -104 -13 -123 -18 -19 -6 -48 -10 -64 -10 -27 0 -28 2 -22 31 3 19 47 80
111 157 113 136 181 243 222 350 30 80 36 109 29 138 -5 18 -11 20 -42 15 -35
-6 -37 -8 -58 -81 -12 -41 -36 -102 -53 -135 -56 -109 -206 -295 -239 -295
-26 0 -40 88 -50 310 -6 147 -17 188 -51 201 -37 14 -51 11 -58 -11z m837
-181 c-7 -156 -66 -300 -163 -401 -77 -81 -86 -71 -65 64 23 138 43 207 79
266 36 61 122 146 140 139 8 -3 11 -25 9 -68z m1132 54 c10 -25 -13 -171 -39
-245 -30 -88 -63 -143 -126 -213 -46 -49 -54 -54 -67 -42 -12 13 -12 26 -2 88
33 205 65 283 153 377 52 55 71 63 81 35z"/>
<path d="M881 1420 c-26 -4 -36 -11 -41 -30 -3 -14 -7 -124 -9 -245 l-2 -220
-36 -65 c-51 -94 -132 -204 -169 -229 -98 -67 -148 36 -115 234 20 119 29 183
36 255 3 30 8 62 10 70 2 8 7 35 10 60 3 25 8 61 11 81 5 34 3 37 -26 48 -31
10 -69 1 -71 -17 0 -4 -2 -16 -4 -27 -2 -11 -6 -38 -10 -61 -9 -60 -14 -90
-30 -179 -36 -192 -43 -245 -39 -320 4 -98 24 -169 61 -214 26 -30 34 -34 96
-38 l67 -5 57 59 c32 32 80 91 107 131 27 40 53 72 56 72 4 0 10 -39 14 -87 4
-49 9 -99 11 -113 1 -14 6 -50 10 -80 15 -122 43 -190 79 -190 46 0 52 30 31
150 -29 165 -29 163 36 366 95 297 107 322 148 309 28 -9 58 -99 85 -255 12
-72 50 -208 67 -242 23 -44 68 -71 120 -70 91 1 169 72 271 246 42 70 72 57
83 -36 12 -102 23 -179 30 -218 34 -184 -5 -280 -126 -314 -77 -22 -201 -27
-256 -11 -38 12 -42 11 -46 -7 -13 -48 70 -72 235 -67 127 4 215 41 263 111
29 43 55 119 50 149 -2 13 -6 49 -9 79 -4 30 -9 76 -11 101 -6 46 -5 46 25 47
46 1 111 44 210 138 102 99 119 114 217 196 56 47 74 68 79 94 22 117 -67 122
-138 7 -20 -32 -76 -94 -124 -138 -48 -44 -112 -103 -143 -132 -107 -100 -154
-106 -146 -20 10 106 18 163 24 174 4 7 49 47 101 88 165 132 191 163 176 213
-8 26 -81 99 -116 117 -65 34 -127 -12 -175 -131 l-22 -53 -33 34 c-41 42
-117 70 -167 60 -69 -13 -182 -151 -273 -334 -22 -45 -45 -81 -50 -81 -19 0
-30 37 -85 305 -3 11 -7 34 -11 50 -11 54 -53 131 -79 145 -19 10 -31 11 -50
2 -30 -14 -50 -53 -105 -205 -42 -114 -60 -141 -81 -120 -9 9 -12 147 -5 251
2 30 -3 50 -16 67 -23 29 -23 35 1 35 11 0 22 3 24 8 6 8 -35 10 -82 2z m1231
-117 c18 -17 23 -49 10 -69 -4 -6 -36 -30 -71 -53 -48 -30 -67 -38 -77 -30
-16 13 -11 28 39 107 41 66 64 77 99 45z m-395 -121 c75 -48 -18 -287 -175
-449 -49 -51 -90 -72 -111 -58 -19 11 -12 82 14 152 28 73 128 253 178 320 32
42 64 54 94 35z"/>
</g>
</svg>
