<svg id="Layer_1" data-name="Layer 1" xmlns="http://www.w3.org/2000/svg" width="670" height="654" viewBox="0 0 670 654"><defs><style>.cls-1{fill:#171717;}.cls-2,.cls-3,.cls-4{fill:none;stroke:#1d1d1d;stroke-linejoin:round;}.cls-2{stroke-width:1.2px;}.cls-3{stroke-width:2.99px;}.cls-4{stroke-width:0.6px;}</style></defs><title>Artboard 1</title><polygon class="cls-1" points="656.54 612.52 671.42 654.98 0.21 654.98 12.92 605.94 33.25 558.09 58.98 528.78 105.03 508.44 163.06 483.92 215.69 461.78 222.8 462.57 237.23 464.18 251.84 468.24 334.13 491.09 471.99 529.02 495.04 535.36 542.29 544.93 578.78 555.7 619.46 571.25 644.58 593.38 656.54 612.52"/><polygon class="cls-1" points="556.25 518.81 556.05 524.59 542.29 544.93 495.04 535.36 503.41 502.46 510.79 501.26 519.56 508.44 534.71 512.03 556.25 518.81"/><polygon class="cls-1" points="366.62 284.11 386.47 288.91 405.01 288.62 412.49 284.43 427.44 291.31 407.41 297.29 388.26 294.9 376 290.11 363.16 284.52 366.62 284.11"/><polygon class="cls-1" points="281.14 286.82 277.5 290.31 266.74 294.3 247.59 295.49 222.87 299.88 240.09 285.46 248.79 288.72 275.77 286.01 281.14 286.82"/><path class="cls-1" d="M194.09,273.91l104.74,6,7.18,5.38h19.14l7.78-5.38,122.62-11.37.81,21,.39,10.15-2.9,6.87h0L452,311l-3,7.48L440,341l-55,14.36-41.28-7.18-16.14-40.68H309.61l-13.16,40.08-35.89,6.58-46.5-9.19-7.94-1.57L200.42,333l-6.11-11-3.74-6.77-6-9v-32.9ZM443.6,293.4l-7.48-13.76-13.75-1-6-.45-49.76,6-3.46.41h0L344,286.82l-7.18,11.66,8.08,34.69,9.57,10.17,27.22,3.29,45.76-7.18,9.27-8.37Zm-143,9-9.57-14.06-9.92-1.5-5.37-.81-28.38-4.28-16.11.42h0l-29.65.78L198,293.4l.6,15.85,12.86,29.91,55,9.27,26.62-6.58Z"/><polyline class="cls-2" points="189.97 218.93 184.59 273.36 194.09 273.91 298.84 279.94 306.02 285.32 325.16 285.32 332.94 279.94 455.56 268.58 459.88 231.28 460.34 227.3 466.96 224.51 473.8 221.62 478.89 230.59 466.03 259.01 467.82 273.06 456.51 289.52"/><polyline class="cls-2" points="453.86 306.56 451.97 311.05 448.98 318.52 440.01 340.95 384.98 355.31 343.7 348.13 327.55 307.46 309.61 307.46 296.45 347.54 260.56 354.11 214.06 344.92 206.12 343.35 200.42 333.03 194.31 322 190.57 315.23 184.59 306.26 184.59 273.36"/><polyline class="cls-2" points="455.56 268.58 456.37 289.53 456.75 299.68 453.86 306.55"/><polyline class="cls-2" points="344.9 260.2 394.55 239.87 430.44 248.84"/><polyline class="cls-2" points="294.65 260.8 246.81 241.06 215.69 248.84"/><polygon class="cls-2" points="356.52 404.59 368.23 403.16 347.29 418.72 331.14 424.1 306.02 424.1 290.46 410.34 274.31 403.76 294.65 407.95 311.4 405.56 319.18 407.95 328.75 404.36 343.7 406.15 356.52 404.59"/><polyline class="cls-2" points="214.06 344.92 216.34 352.59 230.65 400.77 240.15 411.38 253.11 425.88 261.15 434.87 292.86 467.17 329.35 474.94 360.45 468.36 398.73 431.88 417.97 401.96 419.88 398.98 436.42 373.26 440.01 340.95"/><polyline class="cls-2" points="294.65 407.95 306.32 412.74 321.27 415.73 335.33 413.33 356.52 404.59"/><polyline class="cls-2" points="231.29 282.15 247.4 281.74 275.77 286.01 281.14 286.82 291.06 288.32 300.63 302.37 293.16 341.85 266.54 348.43 211.51 339.16 198.65 309.25 198.05 293.4 201.64 282.93 231.28 282.15"/><polyline class="cls-2" points="363.16 284.52 366.62 284.11 416.38 278.15 422.37 278.6 436.12 279.64 443.6 293.4 436.72 331.08 427.44 339.46 381.69 346.64 354.47 343.35 344.9 333.18 336.82 298.49 344 286.82 363.15 284.52"/><polyline class="cls-2" points="417.97 401.96 414.88 427.69 430.44 455.2 461.54 478.53 490.4 495.02 503.41 502.46 495.04 535.36 471.99 529.02 334.13 491.09 251.84 468.24 237.23 464.18 245.64 456.77 252.18 451.02 253.11 425.88"/><polyline class="cls-3" points="448.98 318.52 454.28 321.62 461.24 325.7 468.72 355.31 467.57 382.59 467.22 390.9 456.46 417.22 443.89 427.69 425.65 414.83 420.74 399.82 419.88 398.98"/><polyline class="cls-3" points="194.31 322 183.69 332.28 175.62 355.91 178.31 386.12 189.38 410.04 201.64 422.01 217.19 428.88 222.35 426.74 226.31 425.1 233.04 422.31 240.15 411.38"/><polygon class="cls-2" points="542.29 544.93 556.05 524.59 596.73 536.55 630.82 563.47 644.58 593.38 619.46 571.25 578.78 555.7 542.29 544.93"/><polyline class="cls-2" points="237.23 464.18 222.8 462.57 215.69 461.78 163.06 483.92 105.03 508.44 58.98 528.78 33.25 558.09 12.92 605.94 0.21 654.98 671.42 654.98 656.54 612.52 644.58 593.38"/><path class="cls-2" d="M222.8,462.57c4.13-5.48,6.65-10.83,6.65-15.74a75.85,75.85,0,0,0-1.35-13.38c-.5-2.73-1.11-5.52-1.79-8.35-5.62-23.34-16.3-49.62-10.26-72.43"/><path class="cls-2" d="M453.86,306.55h0c0,.22-.21,5.93.42,15.06,1,14.49,4.06,37.59,13.29,61a151.27,151.27,0,0,0,11.32,23C501.5,442.8,499.71,472,490.4,495a112.16,112.16,0,0,1-6.32,13c-4.86,8.6-10.19,15-12.08,21"/><polyline class="cls-2" points="503.41 502.46 510.79 501.26 519.56 508.44 534.71 512.03 556.25 518.81 556.05 524.59"/><line class="cls-2" x1="495.04" y1="535.36" x2="542.29" y2="544.93"/><path class="cls-2" d="M200.42,333s-20.31,22.58-14,47.11c2.64,10.32,19.55,27.75,36,46.61,1.93,2.22,3.86,4.46,5.75,6.71a217.26,217.26,0,0,1,17.54,23.32,86.64,86.64,0,0,1,6.2,11.47"/><polyline class="cls-2" points="224.67 35.92 245.6 31.14 257.87 23.93 283.29 9 317.96 10.28 348.49 11.39 355.88 10.89 383.18 9 397.54 18.57 429.24 18.57 450.18 50.87 457.35 93.34 472.31 121.46 472.31 156.15 471.71 168.12 466.96 224.51 466.92 224.91"/><polyline class="cls-2" points="189.97 218.93 178.61 198.59 177.41 151.37 198.35 105.31 184.59 76.59 198.35 56.86 218 41.22"/><polyline class="cls-2" points="246.84 126.7 298.24 141.32 341.91 140.72 404.71 118.29 441.8 166.92 443 192.91 459.88 231.28"/><polyline class="cls-2" points="194.09 273.91 199.54 235.68 208.81 140.6 230.95 122.18 246.84 126.7"/><polyline class="cls-2" points="231.28 282.15 231.29 282.15 240.09 285.46 248.79 288.72 275.77 286.01"/><polyline class="cls-2" points="240.09 285.46 222.87 299.88 247.59 295.49 266.74 294.3 277.5 290.31 281.14 286.82"/><polyline class="cls-2" points="366.62 284.11 386.47 288.91 405.01 288.62 412.49 284.43 422.37 278.6"/><polyline class="cls-2" points="412.49 284.43 427.44 291.31 407.41 297.29 388.26 294.9 376 290.11 363.16 284.52 363.15 284.52"/><polyline class="cls-2" points="289.47 365.68 295.05 373.26 300.23 370.86 306.21 376.44 308.61 381.23 330.54 381.23 334.13 373.26 339.32 369.27 347.29 370.46 350.88 361.69"/><polyline class="cls-2" points="404.71 118.29 411.89 68.82 386.77 25.75 355.88 10.89"/><polyline class="cls-2" points="230.95 122.18 204.93 90.35 198.35 56.86"/><polyline class="cls-2" points="341.91 140.72 351.23 73.64 357.51 32.37 342.26 17.11 317.96 10.28"/><polyline class="cls-2" points="298.24 141.32 287.53 67.36 282.15 43.13 274.97 32.37 257.87 23.93"/><polyline class="cls-4" points="246.84 126.7 246.84 126.7 225.62 79.02 218 41.22 224.67 35.92"/></svg>