<?xml version="1.0" encoding="utf-8"?>
<!-- Generator: Adobe Illustrator 22.0.1, SVG Export Plug-In . SVG Version: 6.00 Build 0)  -->
<svg version="1.1" id="Layer_1" xmlns="http://www.w3.org/2000/svg" xmlns:xlink="http://www.w3.org/1999/xlink" x="0px" y="0px"
	 viewBox="0 0 670 654" style="enable-background:new 0 0 670 654;" xml:space="preserve">
<style type="text/css">
	.st0{fill:#171717;}
	.st1{fill:none;stroke:#1D1D1D;stroke-width:1.2;stroke-linejoin:round;}
	.st2{fill:none;stroke:#159780;stroke-width:2.99;stroke-linejoin:round;}
	.st3{fill:none;stroke:#1D1D1D;stroke-width:0.6;stroke-linejoin:round;}
	.st4{fill:#159780;}
</style>
<title>Artboard 1</title>
<polygon class="st0" points="656.5,612.5 671.4,655 0.2,655 12.9,605.9 33.2,558.1 59,528.8 105,508.4 163.1,483.9 215.7,461.8 
	222.8,462.6 237.2,464.2 251.8,468.2 334.1,491.1 472,529 495,535.4 542.3,544.9 578.8,555.7 619.5,571.2 644.6,593.4 "/>
<polygon class="st0" points="556.2,518.8 556,524.6 542.3,544.9 495,535.4 503.4,502.5 510.8,501.3 519.6,508.4 534.7,512 "/>
<polygon class="st0" points="366.6,284.1 386.5,288.9 405,288.6 412.5,284.4 427.4,291.3 407.4,297.3 388.3,294.9 376,290.1 
	363.2,284.5 "/>
<polygon class="st0" points="281.1,286.8 277.5,290.3 266.7,294.3 247.6,295.5 222.9,299.9 240.1,285.5 248.8,288.7 275.8,286 "/>
<path class="st0" d="M194.1,273.9l104.7,6l7.2,5.4h19.1l7.8-5.4l122.6-11.4l0.8,21l0.4,10.1l-2.9,6.9l0,0L452,311l-3,7.5l-9,22.5
	l-55,14.4l-41.3-7.2l-16.1-40.7h-18l-13.2,40.1l-35.9,6.6l-46.5-9.2l-7.9-1.6l-5.7-10.4l-6.1-11l-3.7-6.8l-6-9v-32.9L194.1,273.9z
	 M443.6,293.4l-7.5-13.8l-13.8-1l-6-0.5l-49.8,6l-3.5,0.4l0,0l-19.1,2.2l-7.2,11.7l8.1,34.7l9.6,10.2l27.2,3.3l45.8-7.2l9.3-8.4
	L443.6,293.4z M300.6,302.4l-9.6-14.1l-9.9-1.5l-5.4-0.8l-28.4-4.3l-16.1,0.4l0,0l-29.6,0.8l-3.6,10.4l0.6,15.9l12.9,29.9l55,9.3
	l26.6-6.6L300.6,302.4z"/>
<polyline class="st1" points="190,218.9 184.6,273.4 194.1,273.9 298.8,279.9 306,285.3 325.2,285.3 332.9,279.9 455.6,268.6 
	459.9,231.3 460.3,227.3 467,224.5 473.8,221.6 478.9,230.6 466,259 467.8,273.1 456.5,289.5 "/>
<polyline class="st1" points="453.9,306.6 452,311 449,318.5 440,341 385,355.3 343.7,348.1 327.5,307.5 309.6,307.5 296.5,347.5 
	260.6,354.1 214.1,344.9 206.1,343.4 200.4,333 194.3,322 190.6,315.2 184.6,306.3 184.6,273.4 "/>
<polyline class="st1" points="455.6,268.6 456.4,289.5 456.8,299.7 453.9,306.5 "/>
<polyline class="st1" points="344.9,260.2 394.5,239.9 430.4,248.8 "/>
<polyline class="st1" points="294.6,260.8 246.8,241.1 215.7,248.8 "/>
<polygon class="st1" points="356.5,404.6 368.2,403.2 347.3,418.7 331.1,424.1 306,424.1 290.5,410.3 274.3,403.8 294.6,408 
	311.4,405.6 319.2,408 328.8,404.4 343.7,406.1 "/>
<polyline class="st1" points="214.1,344.9 216.3,352.6 230.6,400.8 240.1,411.4 253.1,425.9 261.1,434.9 292.9,467.2 329.4,474.9 
	360.5,468.4 398.7,431.9 418,402 419.9,399 436.4,373.3 440,341 "/>
<polyline class="st1" points="294.6,408 306.3,412.7 321.3,415.7 335.3,413.3 356.5,404.6 "/>
<polyline class="st1" points="231.3,282.1 247.4,281.7 275.8,286 281.1,286.8 291.1,288.3 300.6,302.4 293.2,341.9 266.5,348.4 
	211.5,339.2 198.6,309.2 198.1,293.4 201.6,282.9 231.3,282.1 "/>
<polyline class="st1" points="363.2,284.5 366.6,284.1 416.4,278.1 422.4,278.6 436.1,279.6 443.6,293.4 436.7,331.1 427.4,339.5 
	381.7,346.6 354.5,343.4 344.9,333.2 336.8,298.5 344,286.8 363.1,284.5 "/>
<polyline class="st1" points="418,402 414.9,427.7 430.4,455.2 461.5,478.5 490.4,495 503.4,502.5 495,535.4 472,529 334.1,491.1 
	251.8,468.2 237.2,464.2 245.6,456.8 252.2,451 253.1,425.9 "/>
<polyline class="st2" points="449.7,318.9 454.3,321.6 461.2,325.7 468.7,355.3 467.6,382.6 467.2,390.9 456.5,417.2 443.9,427.7 
	425.6,414.8 420.7,399.8 419.9,399 "/>
<polyline class="st2" points="193.6,322.8 183.7,332.3 175.6,355.9 178.3,386.1 189.4,410 201.6,422 217.2,428.9 222.4,426.7 
	226.3,425.1 233,422.3 240.1,411.4 "/>
<polygon class="st1" points="542.3,544.9 556,524.6 596.7,536.5 630.8,563.5 644.6,593.4 619.5,571.2 578.8,555.7 "/>
<polyline class="st1" points="237.2,464.2 222.8,462.6 215.7,461.8 163.1,483.9 105,508.4 59,528.8 33.2,558.1 12.9,605.9 0.2,655 
	671.4,655 656.5,612.5 644.6,593.4 "/>
<path class="st1" d="M222.8,462.6c4.1-5.5,6.6-10.8,6.6-15.7c-0.1-4.5-0.5-9-1.4-13.4c-0.5-2.7-1.1-5.5-1.8-8.4
	c-5.6-23.3-16.3-49.6-10.3-72.4"/>
<path class="st1" d="M453.9,306.5L453.9,306.5c0,0.2-0.2,5.9,0.4,15.1c1,14.5,4.1,37.6,13.3,61c3.1,8,6.9,15.7,11.3,23
	c22.6,37.2,20.8,66.4,11.5,89.4c-1.8,4.5-3.9,8.8-6.3,13c-4.9,8.6-10.2,15-12.1,21"/>
<polyline class="st1" points="503.4,502.5 510.8,501.3 519.6,508.4 534.7,512 556.2,518.8 556,524.6 "/>
<line class="st1" x1="495" y1="535.4" x2="542.3" y2="544.9"/>
<path class="st1" d="M200.4,333c0,0-20.3,22.6-14,47.1c2.6,10.3,19.6,27.8,36,46.6c1.9,2.2,3.9,4.5,5.8,6.7
	c6.4,7.4,12.2,15.2,17.5,23.3c2.4,3.7,4.4,7.5,6.2,11.5"/>
<polyline class="st1" points="224.7,35.9 245.6,31.1 257.9,23.9 283.3,9 318,10.3 348.5,11.4 355.9,10.9 383.2,9 397.5,18.6 
	429.2,18.6 450.2,50.9 457.4,93.3 472.3,121.5 472.3,156.1 471.7,168.1 467,224.5 466.9,224.9 "/>
<polyline class="st1" points="190,218.9 178.6,198.6 177.4,151.4 198.4,105.3 184.6,76.6 198.4,56.9 218,41.2 "/>
<polyline class="st1" points="246.8,126.7 298.2,141.3 341.9,140.7 404.7,118.3 441.8,166.9 443,192.9 459.9,231.3 "/>
<polyline class="st1" points="194.1,273.9 199.5,235.7 208.8,140.6 230.9,122.2 246.8,126.7 "/>
<polyline class="st1" points="231.3,282.1 231.3,282.1 240.1,285.5 248.8,288.7 275.8,286 "/>
<polyline class="st1" points="240.1,285.5 222.9,299.9 247.6,295.5 266.7,294.3 277.5,290.3 281.1,286.8 "/>
<polyline class="st1" points="366.6,284.1 386.5,288.9 405,288.6 412.5,284.4 422.4,278.6 "/>
<polyline class="st1" points="412.5,284.4 427.4,291.3 407.4,297.3 388.3,294.9 376,290.1 363.2,284.5 363.1,284.5 "/>
<polyline class="st1" points="289.5,365.7 295,373.3 300.2,370.9 306.2,376.4 308.6,381.2 330.5,381.2 334.1,373.3 339.3,369.3 
	347.3,370.5 350.9,361.7 "/>
<polyline class="st1" points="404.7,118.3 411.9,68.8 386.8,25.8 355.9,10.9 "/>
<polyline class="st1" points="230.9,122.2 204.9,90.3 198.4,56.9 "/>
<polyline class="st1" points="341.9,140.7 351.2,73.6 357.5,32.4 342.3,17.1 318,10.3 "/>
<polyline class="st1" points="298.2,141.3 287.5,67.4 282.1,43.1 275,32.4 257.9,23.9 "/>
<polyline class="st3" points="246.8,126.7 246.8,126.7 225.6,79 218,41.2 224.7,35.9 "/>
<polygon class="st4" points="194.6,323.8 192.6,321.7 193.2,321.3 "/>
<polygon class="st4" points="449,320.2 450.5,317.6 450.1,317.4 "/>
</svg>
