<svg xmlns="http://www.w3.org/2000/svg" width="30" height="27" viewBox="0 0 30 27"><defs><style>.cls-1{fill:#1d1d1d;}.cls-2{fill:#fff;}</style></defs><title>Artboard 1</title><g id="frame_copy" data-name="frame copy"><polyline class="cls-1" points="12.97 26.85 25.19 26.85 28.06 24.6 28.06 3.39 25.19 0.19 12.97 0.19 16.52 0.19 4.3 0.19 1.43 3.39 1.43 24.6 4.3 26.85 16.52 26.85"/></g><g id="randomizer"><g id="OPXeGJ.tif"><path class="cls-2" d="M4.92,17.57c.1-.25.17-.3.45-.3H7.82a2.36,2.36,0,0,0,1.64-.59,4.44,4.44,0,0,0,.8-1,19.56,19.56,0,0,0,1.17-2.4,26.57,26.57,0,0,1,1.38-2.86,8.71,8.71,0,0,1,1.51-1.9,4.84,4.84,0,0,1,2.3-1.19A5.73,5.73,0,0,1,18,7.2h2.79s0-.09,0-.13c0-.67,0-1.34,0-2a.34.34,0,0,1,.41-.37.56.56,0,0,1,.27.15l2.35,2.34,1.11,1.12a1.76,1.76,0,0,1,.18.27V8.7a1.71,1.71,0,0,1-.18.27L21.4,12.46a.36.36,0,0,1-.58,0,.49.49,0,0,1-.07-.25c0-.66,0-1.32,0-2v-.12h-3a2.21,2.21,0,0,0-1.62.65,5.7,5.7,0,0,0-.63.77,12.57,12.57,0,0,0-1,1.95c-.38.85-.75,1.7-1.15,2.54a9.82,9.82,0,0,1-1,1.75,7.22,7.22,0,0,1-1.39,1.43,4.83,4.83,0,0,1-2.09.87,6.73,6.73,0,0,1-1,.09c-.8,0-1.6,0-2.4,0-.27,0-.35-.05-.45-.31Z"/><path class="cls-2" d="M21,22.66a.45.45,0,0,1-.27-.47c0-.64,0-1.28,0-1.92v-.13H18.12a6.94,6.94,0,0,1-1.81-.23,4.62,4.62,0,0,1-2.1-1.2,7.93,7.93,0,0,1-.89-1l-.05-.07a24.1,24.1,0,0,0,1.52-3.06c.13.26.25.5.38.74a5,5,0,0,0,.95,1.31,2.42,2.42,0,0,0,1.64.66c1,0,1.94,0,2.91,0h.06v-.12q0-1,0-2a.67.67,0,0,1,0-.18.35.35,0,0,1,.48-.21.62.62,0,0,1,.18.12l3.46,3.46a1.84,1.84,0,0,1,.18.26v.14a1.21,1.21,0,0,1-.14.23l-3.48,3.48a2,2,0,0,1-.25.18Z"/><path class="cls-2" d="M4.92,7.52c.1-.26.17-.31.45-.31H7.88a5.23,5.23,0,0,1,4,1.83c.18.2.34.42.52.64a.08.08,0,0,1,0,.11,20.87,20.87,0,0,0-1.46,2.89l-.05.12-.06-.12a9.27,9.27,0,0,0-.9-1.54,2.53,2.53,0,0,0-1.55-1,3.15,3.15,0,0,0-.63-.06H5.37c-.28,0-.35-.05-.45-.31Z"/></g></g></svg>