<svg xmlns="http://www.w3.org/2000/svg" width="30" height="27" viewBox="0 0 30 27"><defs><style>.cls-1{fill:#1d1d1d;}.cls-2{fill:#fff;}</style></defs><title>Artboard 1</title><g id="frame"><polygon class="cls-1" points="28.29 5.13 27.48 2.33 23.41 0.12 4.79 0.36 1.43 3.38 1.48 9.26 1.65 22.93 3.4 25.02 6.65 27 24.57 26.88 28.41 24.44 28.47 9.55 28.29 5.13"/><path class="cls-2" d="M23.64,16.39A1.42,1.42,0,0,1,23,17.56L15.66,22.4a1.41,1.41,0,0,1-1.55,0L6.9,17.65a1.42,1.42,0,0,1-.64-1.17V11.17A1.43,1.43,0,0,1,6.88,10l7.07-4.93a1.41,1.41,0,0,1,1.58,0L23,10a1.42,1.42,0,0,1,.64,1.17Z"/><polygon class="cls-1" points="15.78 16.53 15.78 20.12 21 16.63 18.29 14.86 15.78 16.53"/><polygon class="cls-1" points="13.96 16.54 11.33 14.78 8.72 16.61 13.96 20.12 13.96 16.54"/><polygon class="cls-1" points="21.75 14.91 21.75 12.54 19.96 13.74 21.75 14.91"/><polygon class="cls-1" points="14.65 12.45 12.95 13.64 14.88 14.93 16.63 13.75 14.65 12.45"/><polygon class="cls-1" points="18.3 12.63 21.01 10.81 15.75 7.15 15.76 10.79 18.3 12.63"/><polygon class="cls-1" points="13.89 10.71 13.89 7.15 8.7 10.79 11.29 12.53 13.89 10.71"/><polygon class="cls-1" points="7.99 12.54 7.99 14.85 9.67 13.67 7.99 12.54"/></g></svg>