<svg xmlns="http://www.w3.org/2000/svg" width="30" height="27" viewBox="0 0 30 27"><defs><style>.cls-1{fill:#1d1d1b;}.cls-2{fill:none;stroke:#1d1d1b;stroke-miterlimit:10;stroke-width:1.86px;}</style></defs><title>Artboard 1</title><g id="insta"><path class="cls-1" d="M23.16.81l4.08,2L28,5.35V8.8l-7.22-.31L18.93,6.12,18.8,6l-.2,0-4.28-.58-.13,0-.12.05-3.7,1.5L10.14,7l-.07.23L9.72,8.47H1.82L1.92,3l2.4-1.57.19,4.09,0,.45L5,6l1.1.06.52,0V5.57L6.66,1h.41L6.71,5.29l0,.59.59-.05,1.27-.12.44,0,0-.44.16-4.09,14-.33m.11-.5L8.65.65,8.48,5.22l-1.27.12L7.61.48H6.17L6.11,5.56,5,5.51l-.23-5L1.43,2.73,1.31,9h8.78l.46-1.62,3.7-1.5,4.28.58L20.5,9l8,.35v-4L27.66,2.5,23.27.31Z"/><polygon class="cls-1" points="9.17 9.9 1.66 9.78 1.66 22.95 3.39 25.04 6.63 27 24.42 26.88 28.12 23.42 28.12 10.01 20.26 10.01 21.3 11.86 21.77 15.21 19.69 19.26 16.57 20.3 11.94 20.41 9.52 17.87 8.02 14.98 9.17 9.9"/><polygon class="cls-2" points="10.82 11.38 10.02 14.04 11.48 17.1 15.74 18.03 18.53 16.17 18.53 10.72 13.74 8.86 10.82 11.38"/></g></svg>