<?xml version="1.0" encoding="utf-8"?>
<!-- Generator: Adobe Illustrator 19.2.1, SVG Export Plug-In . SVG Version: 6.00 Build 0)  -->
<svg version="1.1" id="Layer_1" xmlns="http://www.w3.org/2000/svg" xmlns:xlink="http://www.w3.org/1999/xlink" x="0px" y="0px"
	 width="70px" height="27px" viewBox="0 0 70 27" enable-background="new 0 0 70 27" xml:space="preserve">
<g>
	<path fill="#1D1D1D" d="M36,22.8h-3.4c-0.3,0-0.5-0.2-0.5-0.5V4.6c0-0.3,0.2-0.5,0.5-0.5H36c0.3,0,0.5,0.2,0.5,0.5v17.8
		C36.5,22.6,36.3,22.8,36,22.8z"/>
	<path fill="#1D1D1D" d="M52.4,4.1c0.3,0,0.5,0.2,0.5,0.5v1.1c0,0.2,0,0.4-0.1,0.7c-0.1,0.2-0.2,0.4-0.3,0.6l-8.3,11.8
		c-0.2,0.3,0,0.8,0.4,0.8h7.5c0.3,0,0.5,0.2,0.5,0.5v2.4c0,0.3-0.2,0.5-0.5,0.5H38.7c-0.3,0-0.5-0.2-0.5-0.5v-1.2
		c0-0.2,0-0.4,0.1-0.6s0.2-0.4,0.3-0.5l8.3-11.8c0.2-0.3,0-0.8-0.4-0.8h-7c-0.3,0-0.5-0.2-0.5-0.5V4.6c0-0.3,0.2-0.5,0.5-0.5H52.4z"
		/>
	<path fill="#1D1D1D" d="M58.5,15.9v6.4c0,0.3-0.2,0.5-0.5,0.5h-3.4c-0.3,0-0.5-0.2-0.5-0.5V4.6c0-0.3,0.2-0.5,0.5-0.5h5.6
		c1.4,0,2.5,0.1,3.5,0.4c1,0.3,1.7,0.7,2.3,1.2c0.6,0.5,1,1.1,1.3,1.8c0.3,0.7,0.4,1.4,0.4,2.2c0,0.6-0.1,1.2-0.2,1.7
		c-0.2,0.5-0.4,1-0.7,1.5c-0.3,0.5-0.7,0.9-1.2,1.2c-0.5,0.4-1,0.7-1.6,0.9c0.3,0.1,0.6,0.3,0.8,0.5c0.3,0.2,0.5,0.5,0.7,0.8
		l3.5,5.8c0.2,0.3,0,0.8-0.4,0.8h-3c-0.7,0-1.3-0.3-1.6-0.8l-3.1-5.5c-0.1-0.2-0.3-0.4-0.5-0.5s-0.4-0.2-0.8-0.2H58.5z M58.5,12.4
		c0,0.3,0.2,0.5,0.5,0.5h1.3c0.6,0,1.1-0.1,1.5-0.2c0.4-0.1,0.8-0.4,1-0.6c0.3-0.3,0.5-0.6,0.6-0.9s0.2-0.7,0.2-1.2
		c0-0.8-0.3-1.5-0.8-1.9c-0.5-0.5-1.4-0.7-2.5-0.7H59c-0.3,0-0.5,0.2-0.5,0.5V12.4z"/>
</g>
<g id="OPXeGJ.tif">
	<g>
		<path fill="#1D1D1D" d="M0.2,19.1c0.2-0.4,0.3-0.4,0.7-0.4c1.2,0,2.4,0,3.6,0c0.9,0,1.7-0.2,2.4-0.9c0.5-0.4,0.9-0.9,1.2-1.5
			c0.7-1.1,1.2-2.3,1.7-3.5c0.6-1.4,1.2-2.9,2-4.2c0.6-1,1.4-2,2.2-2.8c1-0.9,2.1-1.4,3.4-1.7c0.6-0.2,1.3-0.2,1.9-0.2
			c1.3,0,2.6,0,3.9,0c0.1,0,0.1,0,0.2,0c0-0.1,0-0.1,0-0.2c0-1,0-2,0-2.9c0-0.4,0.3-0.6,0.6-0.6c0.1,0,0.3,0.1,0.4,0.2
			c1.2,1.1,2.3,2.3,3.5,3.4C28.4,4.4,29,5,29.5,5.5c0.1,0.1,0.2,0.3,0.3,0.4c0,0.1,0,0.1,0,0.2c-0.1,0.1-0.2,0.3-0.3,0.4
			c-1.7,1.7-3.4,3.4-5.1,5.1c-0.3,0.3-0.7,0.3-0.9,0c-0.1-0.1-0.1-0.2-0.1-0.4c0-1,0-1.9,0-2.9c0-0.1,0-0.1,0-0.2c0,0-0.1,0-0.1,0
			c-1.4,0-2.8,0-4.3,0c-0.9,0-1.7,0.3-2.4,1c-0.3,0.3-0.7,0.7-0.9,1.1c-0.6,0.9-1,1.9-1.5,2.9c-0.6,1.2-1.1,2.5-1.7,3.7
			c-0.4,0.9-0.9,1.8-1.5,2.6c-0.6,0.8-1.3,1.5-2,2.1c-0.9,0.7-2,1.1-3.1,1.3c-0.5,0.1-1,0.1-1.5,0.1c-1.2,0-2.4,0-3.5,0
			c-0.4,0-0.5-0.1-0.7-0.5C0.2,21.3,0.2,20.2,0.2,19.1z"/>
		<path fill="#1D1D1D" d="M23.8,26.6c-0.3-0.1-0.4-0.4-0.4-0.7c0-0.9,0-1.9,0-2.8c0-0.1,0-0.1,0-0.2c-0.1,0-0.2,0-0.3,0
			c-1.2,0-2.3,0-3.5,0c-0.9,0-1.8-0.1-2.7-0.3c-1.2-0.3-2.2-0.9-3.1-1.8c-0.5-0.5-0.9-1-1.3-1.5c0,0,0-0.1-0.1-0.1
			c0.9-1.4,1.6-3,2.2-4.5c0.2,0.4,0.4,0.7,0.6,1.1c0.4,0.7,0.8,1.4,1.4,1.9c0.7,0.6,1.5,0.9,2.4,1c1.4,0,2.9,0,4.3,0c0,0,0,0,0.1,0
			c0-0.1,0-0.1,0-0.2c0-1,0-1.9,0-2.9c0-0.1,0-0.2,0-0.3c0.1-0.3,0.4-0.4,0.7-0.3c0.1,0,0.2,0.1,0.3,0.2c1.7,1.7,3.4,3.4,5.1,5.1
			c0.1,0.1,0.2,0.3,0.3,0.4c0,0.1,0,0.1,0,0.2c-0.1,0.1-0.1,0.2-0.2,0.3c-1.7,1.7-3.4,3.4-5.1,5.1c-0.1,0.1-0.2,0.2-0.4,0.3
			C24,26.6,23.9,26.6,23.8,26.6z"/>
		<path fill="#1D1D1D" d="M0.2,4.3C0.3,4,0.4,3.9,0.8,3.9c1.2,0,2.5,0,3.7,0c2.3,0,4.3,1,5.8,2.7c0.3,0.3,0.5,0.6,0.8,0.9
			c0,0.1,0.1,0.1,0,0.2C10.3,9,9.6,10.5,9,11.9c0,0,0,0.1-0.1,0.2c0-0.1-0.1-0.1-0.1-0.2C8.4,11.1,8,10.4,7.5,9.7
			C6.9,8.9,6.2,8.4,5.2,8.2C4.9,8.1,4.6,8.1,4.3,8.1c-1.2,0-2.3,0-3.5,0C0.4,8.1,0.3,8,0.2,7.7C0.2,6.5,0.2,5.4,0.2,4.3z"/>
	</g>
</g>
<rect x="30.2" y="81.9" fill="none" width="69" height="53.3"/>
<text transform="matrix(1 0 0 1 30.0917 101.1679)" fill="#1D1D1D" font-family="'Lato-Black'" font-size="25.7723px">IZR</text>
<g id="OPXeGJ.tif_1_">
	<g>
		<path fill="#1D1D1D" d="M0.2,97.5C0.3,97.1,0.4,97,0.8,97c1.2,0,2.4,0,3.6,0c0.9,0,1.7-0.2,2.4-0.9c0.5-0.4,0.9-0.9,1.2-1.5
			c0.7-1.1,1.2-2.3,1.7-3.5c0.6-1.4,1.2-2.9,2-4.2c0.6-1,1.4-2,2.2-2.8c1-0.9,2.1-1.4,3.4-1.7c0.6-0.2,1.3-0.2,1.9-0.2
			c1.3,0,2.6,0,3.9,0c0.1,0,0.1,0,0.2,0c0-0.1,0-0.1,0-0.2c0-1,0-2,0-2.9c0-0.4,0.3-0.6,0.6-0.6c0.1,0,0.3,0.1,0.4,0.2
			c1.2,1.1,2.3,2.3,3.5,3.4c0.5,0.5,1.1,1.1,1.6,1.6c0.1,0.1,0.2,0.3,0.3,0.4c0,0.1,0,0.1,0,0.2c-0.1,0.1-0.2,0.3-0.3,0.4
			c-1.7,1.7-3.4,3.4-5.1,5.1c-0.3,0.3-0.7,0.3-0.9,0c-0.1-0.1-0.1-0.2-0.1-0.4c0-1,0-1.9,0-2.9c0-0.1,0-0.1,0-0.2c0,0-0.1,0-0.1,0
			c-1.4,0-2.8,0-4.3,0c-0.9,0-1.7,0.3-2.4,1c-0.3,0.3-0.7,0.7-0.9,1.1c-0.6,0.9-1,1.9-1.5,2.9c-0.6,1.2-1.1,2.5-1.7,3.7
			c-0.4,0.9-0.9,1.8-1.5,2.6c-0.6,0.8-1.3,1.5-2,2.1c-0.9,0.7-2,1.1-3.1,1.3c-0.5,0.1-1,0.1-1.5,0.1c-1.2,0-2.4,0-3.5,0
			c-0.4,0-0.5-0.1-0.7-0.5C0.2,99.7,0.2,98.6,0.2,97.5z"/>
		<path fill="#1D1D1D" d="M23.8,104.9c-0.3-0.1-0.4-0.4-0.4-0.7c0-0.9,0-1.9,0-2.8c0-0.1,0-0.1,0-0.2c-0.1,0-0.2,0-0.3,0
			c-1.2,0-2.3,0-3.5,0c-0.9,0-1.8-0.1-2.7-0.3c-1.2-0.3-2.2-0.9-3.1-1.8c-0.5-0.5-0.9-1-1.3-1.5c0,0,0-0.1-0.1-0.1
			c0.9-1.4,1.6-3,2.2-4.5c0.2,0.4,0.4,0.7,0.6,1.1c0.4,0.7,0.8,1.4,1.4,1.9c0.7,0.6,1.5,0.9,2.4,1c1.4,0,2.9,0,4.3,0c0,0,0,0,0.1,0
			c0-0.1,0-0.1,0-0.2c0-1,0-1.9,0-2.9c0-0.1,0-0.2,0-0.3c0.1-0.3,0.4-0.4,0.7-0.3c0.1,0,0.2,0.1,0.3,0.2c1.7,1.7,3.4,3.4,5.1,5.1
			c0.1,0.1,0.2,0.3,0.3,0.4c0,0.1,0,0.1,0,0.2c-0.1,0.1-0.1,0.2-0.2,0.3c-1.7,1.7-3.4,3.4-5.1,5.1c-0.1,0.1-0.2,0.2-0.4,0.3
			C24,104.9,23.9,104.9,23.8,104.9z"/>
		<path fill="#1D1D1D" d="M0.2,82.7c0.1-0.4,0.3-0.5,0.7-0.5c1.2,0,2.5,0,3.7,0c2.3,0,4.3,1,5.8,2.7c0.3,0.3,0.5,0.6,0.8,0.9
			c0,0.1,0.1,0.1,0,0.2c-0.9,1.3-1.5,2.8-2.1,4.3c0,0,0,0.1-0.1,0.2c0-0.1-0.1-0.1-0.1-0.2C8.4,89.5,8,88.7,7.5,88
			c-0.6-0.8-1.3-1.3-2.3-1.5c-0.3-0.1-0.6-0.1-0.9-0.1c-1.2,0-2.3,0-3.5,0c-0.4,0-0.5-0.1-0.7-0.5C0.2,84.9,0.2,83.8,0.2,82.7z"/>
	</g>
</g>
<rect id="_x3C_Slice_x3E_" fill="none" width="70" height="27"/>
</svg>
