<svg xmlns="http://www.w3.org/2000/svg" width="30" height="27" viewBox="0 0 30 27"><defs><style>.cls-1{fill:#1d1d1d;}.cls-2,.cls-3{fill:#fff;}.cls-3{stroke:#fff;stroke-miterlimit:10;stroke-width:0.2px;}</style></defs><title>Artboard 1</title><g id="frame_copy" data-name="frame copy"><polyline class="cls-1" points="12.97 26.85 25.19 26.85 28.06 24.6 28.06 3.39 25.19 0.19 12.97 0.19 16.52 0.19 4.3 0.19 1.43 3.39 1.43 24.6 4.3 26.85 16.52 26.85"/></g><g id="converter"><path class="cls-2" d="M19.08,6.36c1.34.26,2.52-.3,3.22-.3s.64.52.64.52c0,.64-.87.48-1.74.41-1.88-.37-2.12.19-2.12.19V5.38S18.74,4,14.61,4s-4.33,1.57-4.33,1.57v2.4c0-.43,1.57-1,4.33-1s4.33.54,4.33,1-1.57.79-4.33.79A12.86,12.86,0,0,1,11,8.32"/><path class="cls-2" d="M8.35,21c-.39-1.2-2-1.86-2.65-2.75a1.35,1.35,0,0,1,.71-2.21c1.08-.34,1.53,1,1.53,1v2.54s0,4.13,6.51,4.13c6.72,0,6.3-4.34,6.3-4.34V16c0,.61-1.94,1.38-6.3,1.38s-6.3-.76-6.3-1.38,1.94-1.11,6.3-1.11a18,18,0,0,1,5.25.56"/><rect class="cls-3" x="13.74" y="9.94" width="0.19" height="0.19"/><rect class="cls-2" x="16.39" y="12.29" width="0.19" height="0.19"/><rect class="cls-2" x="17.55" y="11.08" width="0.19" height="0.19" transform="translate(9.84 -8.2) rotate(35.71)"/><rect class="cls-2" x="14.23" y="12.19" width="0.19" height="0.19" transform="translate(-3.75 6.87) rotate(-23.93)"/><rect class="cls-2" x="15.06" y="11.08" width="0.19" height="0.19" transform="translate(4.71 -4.49) rotate(19.88)"/><rect class="cls-3" x="15.3" y="9.46" width="0.19" height="0.19"/><rect class="cls-3" x="15.89" y="11.36" width="0.19" height="0.19" transform="translate(-3.27 7.47) rotate(-23.93)"/><rect class="cls-3" x="16.72" y="10.25" width="0.19" height="0.19" transform="translate(4.52 -5.1) rotate(19.88)"/><rect class="cls-2" x="11.74" y="9.42" width="0.19" height="0.19" transform="translate(3.94 -3.46) rotate(19.88)"/><rect class="cls-3" x="12.58" y="9.7" width="0.19" height="0.19" transform="translate(-2.89 5.98) rotate(-23.93)"/><rect class="cls-3" x="12.58" y="12.19" width="0.19" height="0.19" transform="translate(-3.9 6.2) rotate(-23.93)"/><rect class="cls-3" x="13.74" y="11.08" width="0.19" height="0.19" transform="translate(-3.35 6.58) rotate(-23.93)"/></g></svg>