<svg xmlns="http://www.w3.org/2000/svg" width="30" height="27" viewBox="0 0 30 27"><defs><style>.cls-1{fill:#1d1d1d;}.cls-2,.cls-4{fill:#fff;}.cls-3{fill:none;stroke:#1d1d1d;}.cls-3,.cls-4{stroke-miterlimit:10;}.cls-4{stroke:#fff;stroke-width:0.2px;}</style></defs><title>Artboard 1</title><g id="frame_copy" data-name="frame copy"><polyline class="cls-1" points="12.97 26.85 25.19 26.85 28.06 24.6 28.06 3.39 25.19 0.19 12.97 0.19 16.52 0.19 4.3 0.19 1.43 3.39 1.43 24.6 4.3 26.85 16.52 26.85"/><path class="cls-2" d="M10.29,7.93a2.36,2.36,0,0,0,.89.45c.49.11,7.65-.25,7.65-.25s.27,0,.27-.2S18.44,7,18.44,7l-2.38-.89H12.25L10.34,7.59l-.06.34"/><path class="cls-3" d="M10.29,7.93c0-.43,1.57-1,4.33-1s4.48.54,4.48,1"/><path class="cls-2" d="M7.94,16v3.31a3.47,3.47,0,0,0,.71,2.22c.48.56,12.1-4.38,12.1-4.78s.24-.83-.41-1.06a16.46,16.46,0,0,0-1.6-.46Z"/></g><g id="converter"><path class="cls-2" d="M19.08,6.36c1.34.26,2.52-.3,3.22-.3s.64.52.64.52c0,.64-.87.48-1.74.41-1.88-.37-2.12.19-2.12.19V5.38S18.74,4,14.61,4s-4.33,1.57-4.33,1.57v2.4c0-.43,1.57-1,4.33-1s4.48.54,4.48,1-1.72.79-4.48.79A12.86,12.86,0,0,1,11,8.32L19.09,8Z"/><path class="cls-2" d="M8.35,21c-.39-1.2-2-1.86-2.65-2.75a1.35,1.35,0,0,1,.71-2.21c1.08-.34,1.53,1,1.53,1v2.54s0,4.13,6.51,4.13c6.72,0,6.3-4.34,6.3-4.34V16c0,.61-1.94,1.38-6.3,1.38S7.94,16.59,7.94,16s2.16-1.11,6.51-1.11a18,18,0,0,1,5.25.56"/><rect class="cls-4" x="13.74" y="9.94" width="0.19" height="0.19"/><rect class="cls-2" x="16.39" y="12.29" width="0.19" height="0.19"/><rect class="cls-2" x="17.55" y="11.08" width="0.19" height="0.19" transform="translate(9.84 -8.2) rotate(35.71)"/><rect class="cls-2" x="14.23" y="12.19" width="0.19" height="0.19" transform="translate(-3.75 6.87) rotate(-23.93)"/><rect class="cls-2" x="15.06" y="11.08" width="0.19" height="0.19" transform="translate(4.71 -4.49) rotate(19.88)"/><rect class="cls-4" x="15.3" y="9.46" width="0.19" height="0.19"/><rect class="cls-4" x="15.89" y="11.36" width="0.19" height="0.19" transform="translate(-3.27 7.47) rotate(-23.93)"/><rect class="cls-4" x="16.72" y="10.25" width="0.19" height="0.19" transform="translate(4.52 -5.1) rotate(19.88)"/><rect class="cls-2" x="11.74" y="9.42" width="0.19" height="0.19" transform="translate(3.94 -3.46) rotate(19.88)"/><rect class="cls-4" x="12.58" y="9.7" width="0.19" height="0.19" transform="translate(-2.89 5.98) rotate(-23.93)"/><rect class="cls-4" x="12.58" y="12.19" width="0.19" height="0.19" transform="translate(-3.9 6.2) rotate(-23.93)"/><rect class="cls-4" x="13.74" y="11.08" width="0.19" height="0.19" transform="translate(-3.35 6.58) rotate(-23.93)"/><path class="cls-3" d="M20.75,16c0,.61-1.94,1.38-6.3,1.38S7.94,16.59,7.94,16"/></g></svg>