<svg id="Layer_2" data-name="Layer 2" xmlns="http://www.w3.org/2000/svg" width="70" height="70" viewBox="0 0 70 70"><defs><style>.cls-1{fill:#22ad94;}</style></defs><title>v copylarge</title><path class="cls-1" d="M15.51,24.17a10.89,10.89,0,0,1-.29-1.83s-.92.13-1.23.13l-.59.07-.2,0L5.69,24.08a1.13,1.13,0,0,0-.91,1.11v.3A8.5,8.5,0,0,0,5.17,28a6.23,6.23,0,0,1,.28,1.85A2.11,2.11,0,0,1,5.12,31c-.05.08-.17.27-.72.27,0,0-.18,0-.55-.36a1.67,1.67,0,0,1-.53-.71L2.52,25a1.13,1.13,0,0,0-.65-.86,2,2,0,0,1-.65-.52A.73.73,0,0,1,1,23.27a.69.69,0,0,1,.16-.48,3,3,0,0,0,.7-2l-.41-4.58a1.11,1.11,0,0,0,0-.26L0,1.76a1.12,1.12,0,0,1,.27-.63A.53.53,0,0,1,.41,1L.54,1,.67,1l.55.18a3.57,3.57,0,0,1,.47.21l.13.08L2,1.86c.13.26.21.43.25.52a10.66,10.66,0,0,1,.32,2.89c0,1.22,0,2.39.08,3.46,0,.39.08,1,.13,1.75S2.9,12.1,3,12.91s.18,1.54.29,2.15.31,1.83,1.42,1.83a1.13,1.13,0,0,0,.51-.12l.1-.05a1.14,1.14,0,0,0,.29-.21A42.51,42.51,0,0,0,10.27,11a28.2,28.2,0,0,0,3.36-6.42,1.09,1.09,0,0,0,.07-.29L14,3.48c.08-.24.14-.49.2-.74s.07-.3.1-.38a1,1,0,0,0,0-.17,6.4,6.4,0,0,1,.17-.79l0-.14H16a1.33,1.33,0,0,1,.09.17,1.79,1.79,0,0,1,.13.42l0,.18a1.14,1.14,0,0,0-.19.63v.24c-.25.86-.51,1.64-.78,2.34s-.62,1.49-1,2.21-.72,1.43-1.15,2.14L11.8,12l-1.56,1.95L5.71,19.29a1.12,1.12,0,0,0-.15.22L4.9,20.83a1.13,1.13,0,0,0,0,1.1c.41.66,1.17.57,1.83.41a36.72,36.72,0,0,1,3.67-.69c1.18-.15,2.39-.26,3.7-.33a1.13,1.13,0,0,0,1.07-1c.13-1.44.29-2.71.48-3.89a27.43,27.43,0,0,1,2.14-7.16,15.5,15.5,0,0,1,3.64-5,12.84,12.84,0,0,1,5.2-2.76l.6,0a1.11,1.11,0,0,1,1.17.75,14.25,14.25,0,0,1,.91,4.2c.22,2,.37,4.72.45,7.93.06,2.22.16,4.84.31,7.79A1.13,1.13,0,0,0,31,23.16l.22,0a1.13,1.13,0,0,0,1-.66l2.65-5.74,0,0a1.14,1.14,0,0,0,.17-.7l-.09-1q-.33-3.83-.84-9.32a.89.89,0,0,1,.16-.49.5.5,0,0,1,.29-.05,3.29,3.29,0,0,1,1.23.19,1.39,1.39,0,0,1,.53.53q0,.51,0,1.09.05.74.15,1.9l.09.91a1.13,1.13,0,0,0,1.89.73l.24-.23.88-.78c1-.88,2.05-1.57,3.08-2.39a5.64,5.64,0,0,1,3.13-1.68.54.54,0,0,1,.63.43c0,.13.09.25.12.38l0,.06a16.61,16.61,0,0,0-2.07,1.09A15.45,15.45,0,0,0,42,9.37c-.75.7-1.5,1.44-2.23,2.2-.26.3-.53.66-.86,1.11-.47.65-.67,1-.67,1.4a1.18,1.18,0,0,0,1.13,1.18A14.7,14.7,0,0,0,42.18,15l2.61-.54,2.57-.53a12.83,12.83,0,0,1,2.45-.23,1.2,1.2,0,0,0,1.14-.82,24.14,24.14,0,0,1,1.34-3.63,15.5,15.5,0,0,1,3.64-5,12.85,12.85,0,0,1,5.2-2.76l.6,0a1.11,1.11,0,0,1,1.17.75,14.17,14.17,0,0,1,.91,4.2c.21,2,.37,4.71.45,7.93s.26,7.24.53,11.78a1.17,1.17,0,0,0,0,.23,3.76,3.76,0,0,1,.14.74c0,.24,0,.54,0,.89a.49.49,0,0,1,0,.27.62.62,0,0,1-.44.12A1.54,1.54,0,0,1,63.33,28a3.65,3.65,0,0,1-.6-1.66c0-.15,0-.41-.07-.77q-.08-.78-.21-1.78c-.08-.65-.16-1.3-.22-2s-.12-1.22-.15-1.65V20a1.1,1.1,0,0,0,0-.23A7,7,0,0,1,62,18.74a14.67,14.67,0,0,0-.14-1.59c-.06-.53-.11-1.08-.14-1.63a1.13,1.13,0,0,0-.25-.64,1,1,0,0,0-.2-.25c-.24-.13-.76-.21-.95,0A6.91,6.91,0,0,0,59,16.48l-1,1.68c-.43.84-1.9,2.73-2.4,3.55A23.15,23.15,0,0,1,54.1,24a10.11,10.11,0,0,1-1.57,1.62,3,3,0,0,1-1.26.64c-.2,0-.48.11-.65-.06-1.23-1.22-1.12-6.82-1.12-6.82s-.58.76-.68.85a11.36,11.36,0,0,0-1.34,1.61c-.8,1-1.7,2.23-2.69,3.61l-.37,0a1.3,1.3,0,0,1-.72-.35c-.33-.27-.33-.43-.33-.5s0-.15,0-.15q.59-.73,1.32-1.54t1.5-1.7a20.06,20.06,0,0,0,1.4-1.86,13.52,13.52,0,0,0,1.11-2,1.12,1.12,0,0,0,.1-.46v-.3a1.13,1.13,0,0,0-1.13-1.13l-.23,0L40.91,16.8h-.65c-.4,0-.92,0-1.55-.09h-.11a4.49,4.49,0,0,1-1.17-.5s0,1.39,0,1.73c.1,1.16.21,2.43.32,3.84.08,1,.15,1.54.22,2.06s.17,1.3.28,3a10,10,0,0,1,0,2.49,2.85,2.85,0,0,1-.42,1.23s-.06.08-.28.08h-.21a10.57,10.57,0,0,1-1.08-.6,7.16,7.16,0,0,1-.14-.9V28.8c0-.17,0-.54-.08-1.1s-.11-1.24-.17-2.22c0-.53-.09-1.17-.14-1.9a1.13,1.13,0,0,0-.89-1l-.24,0a1.14,1.14,0,0,0-1,.59,37.57,37.57,0,0,1-3.12,5.08.67.67,0,0,1-.49.15A1.54,1.54,0,0,1,28.88,28a3.66,3.66,0,0,1-.6-1.65c0-.15,0-.41-.07-.77q-.08-.78-.21-1.78t-.22-2c-.07-.67-.12-1.22-.15-1.65V20a1.16,1.16,0,0,0,0-.22,7,7,0,0,1-.11-1.08,15,15,0,0,0-.14-1.59c-.06-.52-.08-1.08-.14-1.63,0-.32-.15-1-.2-1.29-.14-.83-.68-3.07-.68-3.07s-.77,2.69-1.14,3.54c-.25.58-.66,1.22-1.06,2L22.6,19.2c-.42.83-.9,1.67-1.4,2.51A23.32,23.32,0,0,1,19.65,24c-.5.64-1.42,1.81-2.11,1.86C16.64,25.88,15.94,25,15.51,24.17Zm43.72-20a1.13,1.13,0,0,0-.68.22,15,15,0,0,0-2.91,3,13.16,13.16,0,0,0-2,3.67c-.19.56-.38,1.27-.59,2.19s-.39,1.79-.54,2.67-.28,1.69-.39,2.42a12.32,12.32,0,0,0-.16,1.55A1.13,1.13,0,0,0,53,21a1.27,1.27,0,0,0,1-.56,18.92,18.92,0,0,0,4.72-7,27.25,27.25,0,0,0,1.56-8.07,1.13,1.13,0,0,0-1.13-1.19Zm-34.45,0a1.14,1.14,0,0,0-.68.22,15,15,0,0,0-2.91,3,13.2,13.2,0,0,0-2,3.67c-.18.54-.37,1.26-.59,2.19S18.16,15,18,15.87s-.28,1.68-.39,2.42a12.38,12.38,0,0,0-.16,1.55A1.13,1.13,0,0,0,18.59,21a1.28,1.28,0,0,0,1-.55,19,19,0,0,0,4.72-7,27.24,27.24,0,0,0,1.57-8.07,1.13,1.13,0,0,0-1.13-1.19Z"/><path class="cls-1" d="M54.14,61.21a6.06,6.06,0,0,1-.61,3.11,6.63,6.63,0,0,1-1.65,2.48,8.6,8.6,0,0,1-3.36,1.8l-.16.07h0a5.09,5.09,0,0,1-.93.15c-.65.07-1.39.12-2.22.15l-1.29,0-1.37,0A21.85,21.85,0,0,1,40,68.74a5.55,5.55,0,0,1-1.59-.45l-.06,0a1.13,1.13,0,0,0-.07-.34.93.93,0,0,1,0-.59v0a10.19,10.19,0,0,0,2.29.55,14.39,14.39,0,0,0,1.73.1q.58,0,1.16,0a18.48,18.48,0,0,0,2.84-.45c.92-.22,1.81-.48,2.64-.77a1.13,1.13,0,0,0,.35-.2,6.34,6.34,0,0,0,2.05-3.17,6,6,0,0,0,.39-3L50.26,49.07a2,2,0,0,0-.43-1,1.34,1.34,0,0,0-1-.49,1.44,1.44,0,0,0-.87.31,1.13,1.13,0,0,0-.32.38c-.45.86-1,1.81-1.58,2.82a18.19,18.19,0,0,1-2,2.73,10.71,10.71,0,0,1-2.39,2,4.89,4.89,0,0,1-2.65.73,3.27,3.27,0,0,1-1.76-.48L37,56l-.1-.1a1.7,1.7,0,0,1-.53-.55,1.19,1.19,0,0,0-.1-.17,8.32,8.32,0,0,1-1.07-2.57c-.33-1.22-.64-2.54-.94-3.9s-.57-2.72-.81-4a25.57,25.57,0,0,0-.81-3.32A3,3,0,0,0,31,39.25a1.79,1.79,0,0,0-.45-.07c-1.21,0-1.79,1.45-2.07,2.15l-4.3,13.25a1.15,1.15,0,0,0,0,.49l.09.77c.06.52.11,1,.19,1.54a10,10,0,0,0,.14,1.17l.58,3.51c.07.43.13.75.17.94v.51c0,.51-.07.86-1,.93h-.07c-.13,0-.25,0-.42-.29A6.09,6.09,0,0,1,23,62.24a25.26,25.26,0,0,1-.58-3q-.24-1.72-.39-3.33t-.32-3l-.38-4.06s-1.89,2.78-2.68,3.9c-.57.8-1.66,2.32-2.34,3.09a10.4,10.4,0,0,1-2,1.84A4.56,4.56,0,0,1,11.9,58a2.75,2.75,0,0,1-2-.72,5.8,5.8,0,0,1-1.34-2.19,12.29,12.29,0,0,1-.65-3l0-.5a14.12,14.12,0,0,1-.11-2.39c.17-2.1.82-5.55,1.39-8.6.38-2,.74-3.93.94-5.32.06-.44.1-.84.14-1.22l0-.29s0-.15,0-.21l0-.11A1.33,1.33,0,0,1,10.4,33a1.24,1.24,0,0,1,.41-.39.86.86,0,0,1,.46-.12l.26.07a3.24,3.24,0,0,1,.61.24l.37.21-.28,2c-.14,1.14-.3,2.17-.45,3.11-.22,1.36-.4,2.54-.48,3.71s-.4,3.1-.7,4.91A35.69,35.69,0,0,0,10,51.37a9.51,9.51,0,0,0,.39,2.94,3.73,3.73,0,0,0,.79,1.34,1.12,1.12,0,0,0,.36.24,3.28,3.28,0,0,0,1.27.26,3,3,0,0,0,.65-.07,4.22,4.22,0,0,0,2-1.28A19.07,19.07,0,0,0,17.62,52c.8-1.19,1.78-2.8,2.92-4.79a3.4,3.4,0,0,0,.33-.8l.18-.56a1.14,1.14,0,0,0,.06-.39c-.07-2.27-.08-4.61,0-7s.13-4.52.23-6.76a.68.68,0,0,1,.19-.19.65.65,0,0,1,.36-.13l.25.09a2.91,2.91,0,0,1,.61.32,4.24,4.24,0,0,1,.54.44l0,0,.17.14c.53.51.53.86.53,1,0,.86,0,1.74-.13,2.61s-.14,1.88-.14,2.83v1.43A7.1,7.1,0,0,0,24,42a1.13,1.13,0,0,0,1,.86h.06a1.13,1.13,0,0,0,1.06-.74q.16-.43.54-1.5t.81-2.18q.45-1.17.83-2.22c.24-.68.42-1.16.52-1.43a6.42,6.42,0,0,1,1-1.75,1.5,1.5,0,0,1,1.15-.64h0a1.09,1.09,0,0,1,.69.21,3.21,3.21,0,0,1,.84.92,8.49,8.49,0,0,1,.7,1.39,13.32,13.32,0,0,1,.44,1.29L35.93,47a1.14,1.14,0,0,0,1,.89H37a1.13,1.13,0,0,0,1-.69l.06-.14a40.93,40.93,0,0,1,2.18-4.39,35.16,35.16,0,0,1,2.56-3.89,15.62,15.62,0,0,1,2.6-2.73,3.41,3.41,0,0,1,2-.89,5.93,5.93,0,0,1,1.16.16,7.24,7.24,0,0,1,1.46.48,5,5,0,0,1,1.19.7,11.74,11.74,0,0,1,1.81,2.55,16.64,16.64,0,0,1,.56-1.79l.24-.69c.21-.5.47-1.09.76-1.68a7.17,7.17,0,0,1,.91-1.44,4.08,4.08,0,0,1,1.12-1,2.64,2.64,0,0,1,1.36-.32,2.09,2.09,0,0,1,1,.41,9.87,9.87,0,0,1,1.58,1.25,8.89,8.89,0,0,1,1.26,1.52,1.94,1.94,0,0,1,.4.91,1.79,1.79,0,0,1-.22.9,4.4,4.4,0,0,1-.74,1l-4.59,3.91-2,1.48-.54.4a1.14,1.14,0,0,0-.39.44l-.21.42a3.9,3.9,0,0,0-.3,1.3l-.18,1.6q-.11.92-.19,1.86c-.05.64-.08,1.16-.08,1.57a1.14,1.14,0,0,0,0,.18,1.26,1.26,0,0,0,.37.75,1.34,1.34,0,0,0,1,.44,2.22,2.22,0,0,0,1.59-.7,1.13,1.13,0,0,1,.39-.27,1.14,1.14,0,0,0,.37-.23L65,43.5a1.15,1.15,0,0,0,.18-.21L67.38,40A3.28,3.28,0,0,1,68,39.5a2.14,2.14,0,0,1,1-.32h0a.86.86,0,0,1,.61.22s.21.21.22,1.14a10.46,10.46,0,0,1-.2,1.27,1.49,1.49,0,0,1-.25.54,3.67,3.67,0,0,1-.68.66q-.59.45-1.61,1.29t-2.52,2.17c-1,.9-2.23,2.07-3.64,3.48l-1.67,1.56a14.17,14.17,0,0,1-1.78,1.44,9.71,9.71,0,0,1-1.82,1,4.93,4.93,0,0,1-1.24.28A2,2,0,0,1,53,53.46l.44,2Zm-7.6-23.63a3.79,3.79,0,0,0-.5,0,1.13,1.13,0,0,0-.69.36,19.9,19.9,0,0,0-1.49,2c-.59.86-1.2,1.83-1.81,2.87s-1.21,2.12-1.79,3.24a28.22,28.22,0,0,0-1.46,3.22,12.46,12.46,0,0,0-.72,2.67,2,2,0,0,0,1.19,2.43,1.14,1.14,0,0,0,.91-.06,10.47,10.47,0,0,0,2.67-2.15A26,26,0,0,0,45.36,49a29.37,29.37,0,0,0,2.09-3.57A16.9,16.9,0,0,0,48.74,42a5.3,5.3,0,0,0,0-2.92A2.2,2.2,0,0,0,46.54,37.58Zm12.08-4a1.8,1.8,0,0,0-1.52.91c-.08.11-.28.41-.57.87l-.8,1.31q-.41.68-.68,1.17a1.45,1.45,0,0,0-.15,1.51,1.16,1.16,0,0,0,1,.56,1.3,1.3,0,0,0,.67-.21L60,37.44a1.78,1.78,0,0,0,.72-1.72,2.67,2.67,0,0,0-.51-1.28A2.15,2.15,0,0,0,59,33.62Z"/><path class="cls-1" d="M35.77,1.87a1.81,1.81,0,0,1-.61-.15,4.58,4.58,0,0,1-1-.53,2.82,2.82,0,0,1-.68-.65.43.43,0,0,1-.1-.18.65.65,0,0,1,0-.19A5.13,5.13,0,0,1,34.54,0a3.3,3.3,0,0,1,1.83.57,1.12,1.12,0,0,1,.52,1A3.14,3.14,0,0,1,35.77,1.87Z"/></svg>