<svg id="Layer_2" data-name="Layer 2" xmlns="http://www.w3.org/2000/svg" width="70" height="70" viewBox="0 0 70 70"><defs><style>.cls-1{fill:#fff;}</style></defs><title>v1</title><path class="cls-1" d="M5.57,25.8v-.3a.71.71,0,0,1,.56-.69l7.43-1.51.16,0,.54-.06c.18,0,.55,0,.84-.08a6.14,6.14,0,0,0,.29,1.53c.69,1.27,1.54,1.91,2.41,1.86s1.62-1,2.39-2a23.19,23.19,0,0,0,1.56-2.26c.51-.84,1-1.69,1.39-2.48l1.54-2.51c.16-.32.33-.62.49-.89s.42-.76.57-1.1.46-1.28.7-2c.13.56.25,1.14.31,1.48l0,.21c.06.33.13.78.16,1s0,.5.06.75,0,.59.08.88a14.48,14.48,0,0,1,.13,1.53,7.22,7.22,0,0,0,.11,1.14.74.74,0,0,1,0,.13v.16c0,.43.08,1,.15,1.64s.14,1.32.22,2,.15,1.24.2,1.75c0,.36.06.61.07.79a4,4,0,0,0,.67,1.82,1.79,1.79,0,0,0,1.5.52,1.1,1.1,0,0,0,.77-.26,36.59,36.59,0,0,0,3.17-5.13.71.71,0,0,1,.76-.35.7.7,0,0,1,.55.63c.06.72.11,1.35.14,1.87q.1,1.47.17,2.21c.05.54.08.89.08,1v.18s0,.19,0,.19a7.41,7.41,0,0,0,.15.95l0,.16.13.09a10.61,10.61,0,0,0,1.14.63l.11,0c.33,0,.68.08.89-.25a3.22,3.22,0,0,0,.49-1.39,10.24,10.24,0,0,0,0-2.55c-.11-1.68-.19-2.31-.28-3-.07-.51-.13-1-.21-2-.11-1.4-.22-2.66-.32-3.81,0-.15,0-.58,0-1a2.2,2.2,0,0,0,.79.22c.63.06,1.16.09,1.57.09H41l6.46-1.33a.7.7,0,0,1,.84.69v.3a.69.69,0,0,1-.06.29,12.94,12.94,0,0,1-1.06,1.91,19.41,19.41,0,0,1-1.35,1.8q-.71.84-1.47,1.67T43,24.48l-.09.11v.3a1.06,1.06,0,0,0,.47.81,1.6,1.6,0,0,0,1,.44l.42,0,.18,0,.11-.15c1-1.35,1.85-2.55,2.65-3.56l.2-.26A8.57,8.57,0,0,1,49,20.87c0,1.77.25,4.91,1.22,5.88a.91.91,0,0,0,.81.2l.21,0a3.37,3.37,0,0,0,1.43-.71,10.44,10.44,0,0,0,1.62-1.67,23.28,23.28,0,0,0,1.56-2.27c.2-.33.57-.84,1-1.39a22.42,22.42,0,0,0,1.42-2.14l1-1.69a6.7,6.7,0,0,1,1.12-1.73,1,1,0,0,1,.41,0l.13.19a.71.71,0,0,1,.15.4c0,.56.08,1.11.15,1.65a14.08,14.08,0,0,1,.13,1.53,7.33,7.33,0,0,0,.11,1.14.61.61,0,0,1,0,.12v.16c0,.43.08,1,.15,1.64s.14,1.32.22,2,.15,1.24.2,1.75c0,.36.06.61.07.78a4,4,0,0,0,.67,1.83,1.78,1.78,0,0,0,1.5.52,1.06,1.06,0,0,0,.71-.22s.19-.17.19-.59,0-.66,0-.91a4.09,4.09,0,0,0-.15-.81.8.8,0,0,1,0-.15c-.27-4.48-.44-8.4-.53-11.65S64.2,8.9,64,6.85A14.35,14.35,0,0,0,63,2.55a1.5,1.5,0,0,0-1.54-1h-.19l-.52,0a13.12,13.12,0,0,0-5.32,2.83,15.74,15.74,0,0,0-3.7,5.07,24.26,24.26,0,0,0-1.35,3.66.76.76,0,0,1-.73.5,13.14,13.14,0,0,0-2.5.24l-2.55.52L42.08,15a14.11,14.11,0,0,1-2.72.26.75.75,0,0,1-.7-.75c0-.28.15-.53.58-1.14.32-.44.58-.78.82-1.05.72-.75,1.45-1.48,2.19-2.16a15,15,0,0,1,2.48-1.87,16.11,16.11,0,0,1,2-1.05l.15-.11L47,6.86l0-.19a4.09,4.09,0,0,0-.13-.41,1,1,0,0,0-1.05-.7,5.23,5.23,0,0,0-3,1.5l-.32.26c-.39.31-.79.61-1.19.9-.62.46-1.27.93-1.87,1.48l-.87.78-.24.22a.71.71,0,0,1-.72.13.7.7,0,0,1-.44-.59l-.09-.9q-.1-1.14-.15-1.87,0-.57,0-1.06V6.29l-.07-.1a1.75,1.75,0,0,0-.71-.67,3.65,3.65,0,0,0-1.38-.22c-.41,0-.55.13-.62.22a1.32,1.32,0,0,0-.24.77q.5,5.42.83,9.22l.09,1a.8.8,0,0,1-.15.51c-1,2.1-1.84,4-2.62,5.67a.69.69,0,0,1-.77.39.7.7,0,0,1-.57-.65c-.15-2.93-.26-5.52-.31-7.7-.08-3.18-.23-5.83-.45-7.88A14.45,14.45,0,0,0,29,2.55a1.5,1.5,0,0,0-1.54-1h-.18l-.53,0a13.11,13.11,0,0,0-5.32,2.83,15.74,15.74,0,0,0-3.7,5.07,27.56,27.56,0,0,0-2.15,7.2c-.2,1.17-.35,2.44-.48,3.88a.71.71,0,0,1-.66.64c-1.3.07-2.51.18-3.7.33A36.79,36.79,0,0,0,7,22.27c-.75.19-1.14.12-1.35-.22a.7.7,0,0,1,0-.68l.65-1.31a.7.7,0,0,1,.09-.14l4.49-5.32,1.57-2,1.4-2.36c.43-.72.81-1.45,1.15-2.15s.66-1.46,1-2.21.54-1.48.79-2.35l0-.36a.7.7,0,0,1,.12-.39L17,2.69l0-.35a2.2,2.2,0,0,0-.15-.51,1.82,1.82,0,0,0-.12-.23l-.12-.2H14.47l-.14.43a6.76,6.76,0,0,0-.18.84l0,.11c0,.09-.06.22-.11.41s-.12.47-.19.7l-.18.55a3.26,3.26,0,0,0-.1.34.67.67,0,0,1,0,.18,27.44,27.44,0,0,1-3.27,6.26,41.47,41.47,0,0,1-4.57,5.39.69.69,0,0,1-.18.13l-.1.05a.7.7,0,0,1-.31.07c-.62,0-.84-.56-1-1.46-.1-.6-.2-1.3-.28-2.1s-.15-1.59-.2-2.39S3.5,9.56,3.47,9.18C3.4,8.13,3.37,7,3.39,5.78a11,11,0,0,0-.34-3c0-.1-.12-.28-.26-.56l-.19-.36-.12-.13L2.3,1.61a4,4,0,0,0-.53-.23L1.19,1.2l-.11.41V1.17L.75,1.11l-.12.07a.9.9,0,0,0-.27.25A1.51,1.51,0,0,0,0,2.35L1.45,16.44a1.6,1.6,0,0,1,0,.25l.41,4.49a2.52,2.52,0,0,1-.59,1.66,1.12,1.12,0,0,0-.26.75,1,1,0,0,0,.31.65,2.34,2.34,0,0,0,.79.62.69.69,0,0,1,.4.53l.79,5.21a2,2,0,0,0,.65.91c.44.41.71.47.83.47.7,0,.95-.26,1.07-.46a2.5,2.5,0,0,0,.39-1.4,6.61,6.61,0,0,0-.29-2A8,8,0,0,1,5.57,25.8Zm12.54-5.6a12.14,12.14,0,0,1,.16-1.48q.15-1.09.38-2.38c.15-.84.32-1.7.53-2.62s.4-1.61.57-2.13a12.64,12.64,0,0,1,2-3.51,14.46,14.46,0,0,1,2.8-2.85.71.71,0,0,1,.42-.14.7.7,0,0,1,.7.73,26.52,26.52,0,0,1-1.52,7.86,18.53,18.53,0,0,1-4.61,6.83.85.85,0,0,1-.69.38A.7.7,0,0,1,18.11,20.2Zm34.09,0a12.05,12.05,0,0,1,.16-1.48q.15-1.09.38-2.38c.16-.88.34-1.76.53-2.62s.39-1.59.57-2.13a12.61,12.61,0,0,1,2-3.51,14.46,14.46,0,0,1,2.8-2.85A.7.7,0,0,1,59,5.09a.69.69,0,0,1,.33.08.7.7,0,0,1,.37.65,26.53,26.53,0,0,1-1.52,7.87,18.49,18.49,0,0,1-4.61,6.83.84.84,0,0,1-.69.38A.7.7,0,0,1,52.2,20.2ZM1,1.57Z"/><path class="cls-1" d="M69.64,39.25a1.27,1.27,0,0,0-.9-.33h0a2.53,2.53,0,0,0-1.21.37,5.23,5.23,0,0,0-.59.4h-.07L64.6,43.17a.72.72,0,0,1-.11.13L56.13,51a.71.71,0,0,1-.23.14,1.52,1.52,0,0,0-.53.36,1.78,1.78,0,0,1-1.28.57.91.91,0,0,1-.65-.31.85.85,0,0,1-.25-.52.67.67,0,0,1,0-.11c0-.4,0-.9.08-1.52s.11-1.23.18-1.83l.18-1.59a3.57,3.57,0,0,1,.25-1.15l.21-.42a.7.7,0,0,1,.24-.27l.56-.42,2-1.48,4.56-3.89a4.79,4.79,0,0,0,.8-1.05,2.18,2.18,0,0,0,.28-1.09A2.27,2.27,0,0,0,62,35.34a9.18,9.18,0,0,0-1.31-1.58,10.21,10.21,0,0,0-1.63-1.29A2.39,2.39,0,0,0,57.9,32a3,3,0,0,0-1.56.38,4.44,4.44,0,0,0-1.22,1,7.47,7.47,0,0,0-1,1.51c-.29.6-.56,1.18-.77,1.71l-.29.83c-.07.2-.16.45-.24.7a8.48,8.48,0,0,0-1.39-1.78,5.27,5.27,0,0,0-1.28-.76,7.67,7.67,0,0,0-1.53-.5A6.48,6.48,0,0,0,47.43,35a3.77,3.77,0,0,0-2.28,1,15.87,15.87,0,0,0-2.65,2.78,35,35,0,0,0-2.56,3.89A41,41,0,0,0,37.76,47l.39.15h0l-.44,0a.72.72,0,0,1-.7.42h0a.7.7,0,0,1-.62-.55L34.07,36.32A13.88,13.88,0,0,0,33.62,35a8.82,8.82,0,0,0-.72-1.45,3.58,3.58,0,0,0-.94-1,1.52,1.52,0,0,0-1-.29h0a1.9,1.9,0,0,0-1.44.8,6.72,6.72,0,0,0-1,1.84q-.16.41-.52,1.43t-.82,2.18q-.44,1.14-.8,2.17t-.53,1.48a.71.71,0,0,1-.69.45h0a.7.7,0,0,1-.64-.53,6.62,6.62,0,0,1-.23-1.58V39.06c0-.92,0-1.85.13-2.76s.13-1.76.13-2.62a1.73,1.73,0,0,0-.68-1.3l-.18-.16a4.7,4.7,0,0,0-.59-.48,3.48,3.48,0,0,0-.64-.35v-.13h-.45a1.06,1.06,0,0,0-.58.19,1.08,1.08,0,0,0-.31.3l-.07.1V32c-.1,2.24-.17,4.49-.22,6.7s0,4.66,0,6.91a.71.71,0,0,1,0,.25l-.18.56a2.83,2.83,0,0,1-.29.71c-1.12,2-2.09,3.55-2.87,4.72a18.51,18.51,0,0,1-2.1,2.69,3.79,3.79,0,0,1-1.78,1.15A2.7,2.7,0,0,1,12,55.5a.68.68,0,0,1-.22-.15,3.31,3.31,0,0,1-.68-1.18,9.21,9.21,0,0,1-.36-2.77,35.94,35.94,0,0,1,.61-4.49c.3-1.8.63-3.83.7-4.9s.26-2.29.47-3.64c.15-.94.31-2,.45-3.08L13.25,33,13,32.87l-.41-.23a3.58,3.58,0,0,0-.68-.27l-.37-.08a1.26,1.26,0,0,0-.68.18,1.64,1.64,0,0,0-.54.52,2,2,0,0,0-.24.65l0,.06v.06s0,.12,0,.16l0,.3c0,.37-.07.76-.14,1.19-.2,1.37-.55,3.25-.92,5.25-.57,3-1.21,6.46-1.38,8.56a14.2,14.2,0,0,0,.11,2.44l0,.49a12.59,12.59,0,0,0,.67,3.07,6.18,6.18,0,0,0,1.43,2.32,3.12,3.12,0,0,0,2.33.84h.35a3.92,3.92,0,0,0,2.27-.4,10.64,10.64,0,0,0,2.08-1.89c.63-.72,1.58-2,2.34-3.09.49-.68,1.39-2,2-2.9L21.51,53q.16,1.34.31,3t.39,3.31a25.13,25.13,0,0,0,.58,3,6.41,6.41,0,0,0,.86,2,.93.93,0,0,0,.86.46c1.22-.09,1.39-.7,1.39-1.34v-.59c0-.19-.09-.49-.16-.92l-.57-3.48A10.72,10.72,0,0,1,25,57.29c-.08-.5-.13-1-.19-1.51L24.75,55a.74.74,0,0,1,0-.3L29,41.62c.24-.6.75-1.86,1.66-1.86a1.41,1.41,0,0,1,.31,0c.72.24,1.09,1.13,1.31,1.78a24.9,24.9,0,0,1,.78,3.23q.36,2,.81,4c.29,1.36.61,2.67.93,3.88a8.62,8.62,0,0,0,1.12,2.68l.06.11a2,2,0,0,0,.65.7l.26-.33h0l-.13.44.28.18A3.65,3.65,0,0,0,39,57a5.26,5.26,0,0,0,2.84-.78,11,11,0,0,0,2.46-2.09,18.41,18.41,0,0,0,2-2.77c.59-1,1.12-1.94,1.58-2.81a.69.69,0,0,1,.2-.24,1,1,0,0,1,.61-.22.91.91,0,0,1,.69.33,1.59,1.59,0,0,1,.33.75l1.55,11.16A5,5,0,0,1,51,62.76l-.11.34A5.87,5.87,0,0,1,49,66a.68.68,0,0,1-.22.12c-.81.28-1.68.54-2.57.75a17.91,17.91,0,0,1-2.75.43,14.19,14.19,0,0,1-2.77-.05,9.69,9.69,0,0,1-2.17-.52l-.4-.06-.16.36a1.3,1.3,0,0,0,0,.85.68.68,0,0,1,0,.21l.07.28.22.11A5.87,5.87,0,0,0,40,69a21.94,21.94,0,0,0,2.53.23l1.37,0,1.29,0c.83,0,1.58-.09,2.23-.15a6.82,6.82,0,0,0,.93-.15l.13,0,.1,0A8.93,8.93,0,0,0,52.05,67a7,7,0,0,0,1.74-2.61l.11-.28a5.8,5.8,0,0,0,.52-3l-.66-5.71-.2-.91a1.46,1.46,0,0,0,.82.15,5.23,5.23,0,0,0,1.33-.31,9.94,9.94,0,0,0,1.88-1,14.45,14.45,0,0,0,1.82-1.47l1.66-1.56c1.39-1.39,2.6-2.55,3.58-3.42s1.8-1.58,2.48-2.14,1.19-1,1.58-1.26a4,4,0,0,0,.76-.73,1.91,1.91,0,0,0,.32-.68A10.82,10.82,0,0,0,70,40.69C70,39.74,69.78,39.39,69.64,39.25Zm-10-2-3.44,2.24a.77.77,0,0,1-1-.21c-.21-.36-.06-.7.15-1.08s.4-.7.67-1.14l.79-1.29c.28-.44.47-.73.56-.85a1.38,1.38,0,0,1,1.16-.71l.25,0a1.71,1.71,0,0,1,1,.66A2.23,2.23,0,0,1,60.11,36,1.33,1.33,0,0,1,59.59,37.27ZM39.41,54c-.41-.15-1.08-.6-.9-2a11.88,11.88,0,0,1,.69-2.55,27.39,27.39,0,0,1,1.42-3.14c.58-1.11,1.18-2.18,1.77-3.19s1.19-2,1.78-2.81a19.22,19.22,0,0,1,1.44-1.9.7.7,0,0,1,.43-.22l.44,0a1.76,1.76,0,0,1,1.81,1.21,4.85,4.85,0,0,1,0,2.66A16.32,16.32,0,0,1,47,45.35a28.6,28.6,0,0,1-2,3.48,25.43,25.43,0,0,1-2.44,3.06,10,10,0,0,1-2.53,2A.7.7,0,0,1,39.41,54ZM38.1,47.29h0Z"/><path class="cls-1" d="M34.25,1.74a4.54,4.54,0,0,0,1,.53,1.79,1.79,0,0,0,.6.15,3.11,3.11,0,0,0,1.11-.29,1.11,1.11,0,0,0-.51-1A3.27,3.27,0,0,0,34.6.57a5.08,5.08,0,0,0-1.1.17.64.64,0,0,0,0,.19.42.42,0,0,0,.1.18A2.79,2.79,0,0,0,34.25,1.74Z"/></svg>